<?xml version="1.0" encoding="UTF-8" standalone="no"?>
<svg
   class="ionicon"
   viewBox="0 0 512 512"
   version="1.1"
   id="svg60"
   sodipodi:docname="logo-github.svg"
   inkscape:version="1.2 (dc2aedaf03, 2022-05-15)"
   xmlns:inkscape="http://www.inkscape.org/namespaces/inkscape"
   xmlns:sodipodi="http://sodipodi.sourceforge.net/DTD/sodipodi-0.dtd"
   xmlns="http://www.w3.org/2000/svg"
   xmlns:svg="http://www.w3.org/2000/svg">
  <defs
     id="defs64" />
  <sodipodi:namedview
     id="namedview62"
     pagecolor="#ffffff"
     bordercolor="#000000"
     borderopacity="0.25"
     inkscape:showpageshadow="2"
     inkscape:pageopacity="0.0"
     inkscape:pagecheckerboard="0"
     inkscape:deskcolor="#d1d1d1"
     showgrid="false"
     inkscape:zoom="1.7070312"
     inkscape:cx="256"
     inkscape:cy="256"
     inkscape:window-width="1434"
     inkscape:window-height="874"
     inkscape:window-x="1922"
     inkscape:window-y="22"
     inkscape:window-maximized="1"
     inkscape:current-layer="svg60" />
  <path
     d="M256 32C132.3 32 32 134.9 32 261.7c0 101.5 64.2 187.5 153.2 217.9a17.56 17.56 0 003.8.4c8.3 0 11.5-6.1 11.5-11.4 0-5.5-.2-19.9-.3-39.1a102.4 102.4 0 01-22.6 2.7c-43.1 0-52.9-33.5-52.9-33.5-10.2-26.5-24.9-33.6-24.9-33.6-19.5-13.7-.1-14.1 1.4-14.1h.1c22.5 2 34.3 23.8 34.3 23.8 11.2 19.6 26.2 25.1 39.6 25.1a63 63 0 0025.6-6c2-14.8 7.8-24.9 14.2-30.7-49.7-5.8-102-25.5-102-113.5 0-25.1 8.7-45.6 23-61.6-2.3-5.8-10-29.2 2.2-60.8a18.64 18.64 0 015-.5c8.1 0 26.4 3.1 56.6 24.1a208.21 208.21 0 01112.2 0c30.2-21 48.5-24.1 56.6-24.1a18.64 18.64 0 015 .5c12.2 31.6 4.5 55 2.2 60.8 14.3 16.1 23 36.6 23 61.6 0 88.2-52.4 107.6-102.3 113.3 8 7.1 15.2 21.1 15.2 42.5 0 30.7-.3 55.5-.3 63 0 5.4 3.1 11.5 11.4 11.5a19.35 19.35 0 004-.4C415.9 449.2 480 363.1 480 261.7 480 134.9 379.7 32 256 32z"
     id="path58" />
  <path
     style="fill:#ffffff;stroke-width:0.585812"
     d="M 179.88134,477.37267 C 119.82935,454.4547 73.221362,408.56469 49.051668,348.55835 41.274019,329.24871 36.368839,309.68062 33.559305,286.75515 c -1.20714,-9.85013 -1.006952,-42.86408 0.319699,-52.72311 6.099493,-45.32851 21.959362,-83.32451 49.063158,-117.54219 7.807999,-9.85734 27.399938,-29.338984 36.744118,-36.537243 33.73815,-25.990086 68.47477,-40.590226 109.65926,-46.090855 11.30423,-1.509801 42.00469,-1.509801 53.30892,0 41.36364,5.524558 78.6292,21.298718 110.42563,46.742127 34.69811,27.765331 60.39485,64.657501 74.41121,106.830351 5.53689,16.65955 8.58524,30.30996 10.92931,48.94106 1.22047,9.70047 1.03373,42.66804 -0.30029,53.01601 -2.7431,21.27802 -7.30874,39.18518 -14.85675,58.27052 -23.70803,59.9463 -70.62933,106.52863 -130.20466,129.26403 -10.74873,4.10198 -16.60173,3.3148 -19.7518,-2.65643 l -1.36203,-2.58185 v -36.18583 c 0,-37.04065 -0.19443,-41.08328 -2.40646,-50.03721 -1.49654,-6.05774 -6.19723,-15.56445 -9.63123,-19.47826 l -2.69847,-3.07551 h 1.74642 c 3.41469,0 19.57123,-3.02149 26.91364,-5.03321 46.39935,-12.7128 69.11845,-42.67513 72.80725,-96.01943 1.91754,-27.7299 -3.67405,-49.29404 -17.52043,-67.56798 -1.81876,-2.40033 -3.64532,-4.81825 -4.05902,-5.37315 -0.6255,-0.83899 -0.51233,-1.83664 0.67197,-5.9234 4.22556,-14.58151 3.47627,-33.34472 -2.01446,-50.44516 l -1.83663,-5.72005 -2.42794,-0.0727 c -11.05877,-0.33107 -19.8591,1.91521 -33.70852,8.60408 -8.24027,3.97982 -11.49673,5.82192 -20.47071,11.57972 l -5.47213,3.51098 -6.53702,-1.58547 c -16.58743,-4.02306 -31.06727,-5.67873 -49.59425,-5.67074 -18.21262,0.008 -28.50411,1.13725 -46.65086,5.11948 l -9.45178,2.07416 -4.31481,-2.89697 c -18.0433,-12.1143 -37.4561,-20.29217 -49.12946,-20.69637 -7.71696,-0.2672 -7.98137,-0.19806 -9.0024,2.35373 -1.45534,3.63725 -4.3327,15.07717 -5.07698,20.18523 -1.54641,10.61318 -0.54333,25.71115 2.31926,34.90866 l 1.1555,3.71265 -2.22999,2.68162 c -8.23749,9.90579 -14.44112,22.17714 -17.64391,34.90131 -2.41261,9.58491 -3.14963,17.9737 -2.72451,31.01069 1.7221,52.81005 23.06751,85.03635 65.77483,99.30373 7.89849,2.63867 16.92546,4.79938 25.72587,6.15777 3.21683,0.49654 6.71725,1.0483 7.7787,1.22614 l 1.92993,0.32334 -2.58549,2.87568 c -4.6613,5.18448 -9.35353,16.05556 -10.64382,24.65984 -0.39701,2.64743 -0.40174,2.65191 -4.47326,4.23595 -8.65277,3.36641 -19.04938,4.88625 -26.51819,3.87659 -13.89254,-1.87804 -23.46212,-8.54513 -32.9532,-22.95834 -5.56723,-8.45442 -10.51124,-14.03023 -15.76406,-17.77857 -7.94055,-5.66626 -17.39156,-8.58647 -23.882568,-7.37934 -4.678848,0.87012 -6.25207,1.97149 -6.25207,4.37689 0,2.62835 2.611979,5.62002 8.423067,9.64748 11.304631,7.83485 18.202671,17.47222 25.878351,36.1551 6.17781,15.03701 20.14621,26.01542 38.08209,29.93049 6.61645,1.44424 22.39164,1.3531 30.57301,-0.17664 l 6.00458,-1.12272 v 20.71092 c 0,22.50302 -0.0674,23.03582 -3.29627,26.05478 -3.7583,3.51397 -8.94902,3.73084 -16.87731,0.70513 z"
     id="path239" />
</svg>
