<?xml version="1.0" encoding="UTF-8" standalone="no"?>
<svg
   class="ionicon"
   viewBox="0 0 512 512"
   version="1.1"
   id="svg468"
   sodipodi:docname="logo-mastodon.svg"
   inkscape:version="1.2 (dc2aedaf03, 2022-05-15)"
   xmlns:inkscape="http://www.inkscape.org/namespaces/inkscape"
   xmlns:sodipodi="http://sodipodi.sourceforge.net/DTD/sodipodi-0.dtd"
   xmlns="http://www.w3.org/2000/svg"
   xmlns:svg="http://www.w3.org/2000/svg">
  <defs
     id="defs472" />
  <sodipodi:namedview
     id="namedview470"
     pagecolor="#ffffff"
     bordercolor="#000000"
     borderopacity="0.25"
     inkscape:showpageshadow="2"
     inkscape:pageopacity="0.0"
     inkscape:pagecheckerboard="0"
     inkscape:deskcolor="#d1d1d1"
     showgrid="false"
     inkscape:zoom="1.7070312"
     inkscape:cx="256"
     inkscape:cy="256"
     inkscape:window-width="1434"
     inkscape:window-height="874"
     inkscape:window-x="1922"
     inkscape:window-y="22"
     inkscape:window-maximized="1"
     inkscape:current-layer="svg468" />
  <path
     d="M480 173.59c0-104.13-68.26-134.65-68.26-134.65C377.3 23.15 318.2 16.5 256.8 16h-1.51c-61.4.5-120.46 7.15-154.88 22.94 0 0-68.27 30.52-68.27 134.65 0 23.85-.46 52.35.29 82.59C34.91 358 51.11 458.37 145.32 483.29c43.43 11.49 80.73 13.89 110.76 12.24 54.47-3 85-19.42 85-19.42l-1.79-39.5s-38.93 12.27-82.64 10.77c-43.31-1.48-89-4.67-96-57.81a108.44 108.44 0 01-1-14.9 558.91 558.91 0 0096.39 12.85c32.95 1.51 63.84-1.93 95.22-5.67 60.18-7.18 112.58-44.24 119.16-78.09 10.42-53.34 9.58-130.17 9.58-130.17zm-80.54 134.16h-50V185.38c0-25.8-10.86-38.89-32.58-38.89-24 0-36.06 15.53-36.06 46.24v67h-49.66v-67c0-30.71-12-46.24-36.06-46.24-21.72 0-32.58 13.09-32.58 38.89v122.37h-50V181.67q0-38.65 19.75-61.39c13.6-15.15 31.4-22.92 53.51-22.92 25.58 0 44.95 9.82 57.75 29.48L256 147.69l12.45-20.85c12.81-19.66 32.17-29.48 57.75-29.48 22.11 0 39.91 7.77 53.51 22.92q19.79 22.72 19.75 61.39z"
     id="path466" />
  <path
     style="fill:#ffffff;stroke-width:0.585812"
     d="m 221.73884,495.28836 c -24.46642,-1.38697 -53.37568,-6.10374 -76.86212,-12.54066 -19.4715,-5.33655 -35.76176,-13.748 -50.295932,-25.97026 C 81.221187,445.54293 70.449084,431.22554 61.207766,412.42077 45.228531,379.90531 37.65231,344.18465 33.622686,282.36156 32.661995,267.62249 32.221051,167.99649 33.069289,157.3282 35.767583,123.39181 45.702821,95.146835 63.166323,71.7651 65.453713,68.702533 70.63013,62.894628 74.669472,58.858645 89.500793,44.039655 100.27351,37.834417 122.38292,31.375028 178.71074,14.91854 281.77459,11.562691 355.5881,23.781664 c 21.42823,3.547195 42.47963,9.286834 54.62065,14.89225 9.02858,4.168428 19.04356,11.654671 28.33554,21.180951 6.82291,6.99495 10.44434,11.508239 15.83691,19.737035 13.69644,20.90012 22.07861,46.8005 24.55629,75.87746 0.81506,9.56519 0.43503,57.39986 -0.58692,73.87618 -1.95828,31.57215 -4.81721,57.30504 -8.1692,73.52984 -4.66264,22.56884 -25.72408,44.23299 -58.9411,60.62777 -21.4507,10.58734 -39.76149,15.69053 -68.24713,19.02039 -29.22909,3.41677 -51.65977,4.99133 -71.10474,4.99133 -30.08385,0 -69.66603,-4.30353 -102.6264,-11.15794 -4.57522,-0.95146 -8.61322,-1.72993 -8.97335,-1.72993 -0.94989,0 -0.83307,8.78757 0.20836,15.67434 3.37741,22.3341 12.63049,36.49542 29.74951,45.52997 13.04618,6.8851 28.80175,10.01478 57.84501,11.49027 28.45458,1.44558 55.0671,-1.18897 83.20833,-8.23735 3.94857,-0.98897 7.30316,-1.67419 7.45464,-1.52271 0.40341,0.40341 2.05674,37.14556 1.71192,38.04415 -0.5399,1.40697 -15.76979,7.19805 -27.8978,10.60798 -13.32123,3.74542 -33.08978,7.18126 -48.66015,8.4573 -10.9043,0.89364 -31.87955,1.20074 -42.16963,0.61741 z m -59.16638,-248.222 c 0.005,-33.42792 0.25181,-63.70577 0.54793,-67.28412 1.49871,-18.11065 7.8795,-27.53195 21.43552,-31.64974 4.87681,-1.48139 16.7392,-1.48123 21.65004,2.9e-4 8.75412,2.64098 15.20031,8.0105 19.08178,15.89467 5.18437,10.53066 5.81189,17.28043 5.81382,62.53547 l 0.001,33.24485 H 256 280.89703 v -33.59914 c 0,-35.35621 0.44835,-45.38879 2.36443,-52.90735 3.37047,-13.22549 10.92857,-21.66775 22.53259,-25.1685 4.91084,-1.48152 16.77323,-1.48168 21.65004,-2.9e-4 13.50691,4.10287 19.9166,13.63433 21.39265,31.81166 0.35809,4.40985 0.60033,31.70608 0.60033,67.64663 v 60.2536 h 25.18993 25.18993 l -0.002,-65.75743 c -10e-4,-41.38462 -0.2307,-68.25443 -0.61903,-72.49428 -2.03881,-22.26032 -9.42392,-39.76495 -22.06397,-52.29736 -10.26976,-10.18231 -20.33607,-15.58379 -34.73958,-18.640905 -8.78327,-1.864224 -23.99229,-1.864224 -32.77555,0 -12.6729,2.689795 -22.30758,7.521465 -30.77976,15.435665 -5.99888,5.60377 -8.97982,9.63502 -16.69289,22.57452 -3.32081,5.57102 -6.22116,9.92067 -6.44521,9.6659 -0.2243,-0.25477 -2.99096,-4.81288 -6.14839,-10.12913 -7.39578,-12.45249 -10.42865,-16.54459 -16.38784,-22.11129 -8.45378,-7.897 -18.33378,-12.85951 -30.48686,-15.312867 -19.47797,-3.932042 -39.67306,-0.933058 -54.75433,8.131057 -20.38337,12.25076 -32.28743,33.387 -35.1141,62.34679 -0.40076,4.10592 -0.6246,30.08589 -0.6246,72.49428 v 66.09505 h 25.18993 25.18993 l 0.01,-60.77803 z"
     id="path474" />
</svg>
